<?xml version="1.0" encoding="UTF-8"?>
<svg width="47px" height="47px" viewBox="0 0 47 47" version="1.1" xmlns="http://www.w3.org/2000/svg" xmlns:xlink="http://www.w3.org/1999/xlink">
    <!-- Generator: Sketch 51 (57462) - http://www.bohemiancoding.com/sketch -->
    <title>business-affiliate-network</title>
    <desc>Created with Sketch.</desc>
    <defs></defs>
    <g id="Page-1" stroke="none" stroke-width="1" fill="none" fill-rule="evenodd">
        <g id="business-affiliate-network" fill="#009AFF" fill-rule="nonzero">
            <path d="M17.567,15.938 L14.708,13.236 C15.041,12.631 15.247,11.946 15.247,11.207 C15.247,8.865 13.35,6.968 11.007,6.968 C8.664,6.968 6.764,8.864 6.764,11.207 C6.764,13.55 8.664,15.448 11.007,15.448 C11.833,15.448 12.597,15.202 13.249,14.794 L16.104,17.493 C16.536,16.922 17.023,16.399 17.567,15.938 Z" id="Shape"></path>
            <path d="M29.66,15.6 L33.459,9.207 C33.833,9.314 34.221,9.391 34.628,9.391 C36.975,9.391 38.872,7.493 38.872,5.15 C38.872,2.808 36.975,0.911 34.628,0.911 C32.285,0.911 30.389,2.807 30.389,5.15 C30.389,6.313 30.858,7.364 31.616,8.131 L27.829,14.506 C28.48,14.801 29.094,15.169 29.66,15.6 Z" id="Shape"></path>
            <path d="M42.762,20.952 C40.938,20.952 39.393,22.111 38.794,23.727 L33.516,23.206 C33.516,23.246 33.522,23.284 33.522,23.323 C33.522,24.011 33.446,24.683 33.309,25.332 L38.585,25.853 C38.904,27.877 40.647,29.429 42.762,29.429 C45.104,29.429 47,27.533 47,25.191 C47,22.85 45.104,20.952 42.762,20.952 Z" id="Shape"></path>
            <path d="M28.197,37.624 L27.017,32.468 C26.351,32.7 25.658,32.866 24.935,32.949 L26.117,38.106 C24.762,38.815 23.827,40.216 23.827,41.852 C23.827,44.194 25.723,46.089 28.07,46.089 C30.412,46.089 32.308,44.193 32.308,41.852 C32.311,39.553 30.479,37.692 28.197,37.624 Z" id="Shape"></path>
            <path d="M14.357,25.37 L7.787,27.571 C7.029,26.413 5.724,25.645 4.239,25.645 C1.896,25.645 0,27.542 0,29.884 C0,32.229 1.896,34.126 4.239,34.126 C6.58,34.126 8.481,32.229 8.481,29.884 C8.481,29.786 8.46,29.696 8.452,29.6 L15.043,27.393 C14.746,26.752 14.51,26.077 14.357,25.37 Z" id="Shape"></path>
            <circle id="Oval" cx="23.83" cy="23.323" r="7.271"></circle>
        </g>
    </g>
</svg>